<svg xmlns="http://www.w3.org/2000/svg" version="1.1" xmlns:xlink="http://www.w3.org/1999/xlink" xmlns:svgjs="http://svgjs.dev/svgjs" viewBox="0 0 800 800"><defs><linearGradient x1="50%" y1="0%" x2="50%" y2="100%" id="uundulate-grad"><stop stop-color="hsl(37, 99%, 67%)" stop-opacity="1" offset="45%"></stop><stop stop-color="hsl(316, 73%, 52%)" stop-opacity="1" offset="100%"></stop></linearGradient></defs><g stroke-width="2" stroke="url(#uundulate-grad)" fill="none"><path d="M660.9743411887891 152.0339163065729C687.0560325139561 233.04712416732468 676.1487553361815 326.53236574796347 633.3656064414923 448.56248458875734C590.5824575468032 570.592603429551 559.6060458974105 709.9300325521729 455.61522649428116 737.7784867423818C351.6244070911521 765.626940932591 176.894023309688 681.0666041298256 134.2096733064725 582.2350647017598C91.52532330325698 483.4035252736941 208.71666719661403 362.50560067495167 250.7303464788468 263.3870974876653C292.74402576107957 164.26859430037905 282.24134602747233 148.9012516174776 335.8753338611899 106.46624940278639C389.5093216949075 64.03124718809522 440.4445282207744 50.20582291885904 508.17348808069084 59.699086857148075C575.9024479406075 69.19235079543711 634.8926498636224 71.02070844582101 660.9743411887891 152.0339163065729C687.0560325139561 233.04712416732468 676.1487553361815 326.53236574796347 633.3656064414923 448.56248458875734 "></path><path d="M649.1118503273137 163.30500066612854C674.0080102286094 240.6357899877553 663.5965183770973 329.87170240563773 622.7580580685303 446.35499766275905C581.9195977599635 562.8382929198804 552.3512048219067 695.8422025369284 453.08724084619234 722.4248179003099C353.82327687047814 749.0074332636914 187.03518326089892 668.2907481337788 146.29103098510228 573.9515514069888C105.54687870930564 479.6123546801988 217.41134333478283 364.20979029049 257.5153099223687 269.5966736117168C297.6192765099545 174.9835569329435 287.593991309693 160.3147298265376 338.7900706055144 119.80859134887783C389.9861499013357 79.30245287121801 438.60611976693576 66.10545697785619 503.25649054231076 75.16720891895028C567.9068613176855 84.22896086004437 624.215690426018 85.97421134450178 649.1118503273137 163.30500066612854C674.0080102286094 240.6357899877553 663.5965183770973 329.87170240563773 622.7580580685303 446.35499766275905 "></path><path d="M637.2494052422053 174.57620709599666C660.9600337196298 248.2245778784984 651.0443271943801 333.2111611336246 612.1505554719356 444.14763280707336C573.256783749491 555.0841044805222 545.09640952277 681.7544945919967 450.55930097447083 707.0712711285504C356.0221924261716 732.3880476651041 197.17638898847702 655.5150142080446 158.37243444009925 565.6681601825303C119.56847989172155 475.8213061570159 226.10606524931887 365.91410197634104 264.30031914225776 275.80637180608073C302.4945730351966 185.69864163582042 292.94668236828096 171.72833010591 341.704853126206 133.1510553652817C390.4630238841312 94.57378062465335 436.76775708946457 82.0052131071659 498.33953878029774 90.63545305106504C559.911320471131 99.26569299496413 613.538776764781 100.92783631349499 637.2494052422053 174.57620709599666C660.9600337196298 248.2245778784984 651.0443271943801 333.2111611336246 612.1505554719356 444.14763280707336 "></path><path d="M625.3868686043627 185.8474135258648C647.911965657916 255.8133657692414 638.4920444589286 336.55061986161127 601.5429613226063 441.9402679513877C564.593878186284 547.3299160411641 537.8415226708992 667.6667866470648 448.03126955001494 691.7177243567908C358.2210164291305 715.7686620665168 207.31750316332074 642.7392802823103 170.4537463423619 557.3847689580716C133.58998952140303 472.0302576338331 234.8006956111205 367.61841366219187 271.08523680941244 282.01607000044464C307.3697780077044 196.41372633869742 298.2992818741345 183.14193038528254 344.6195440941633 146.4935193816856C390.9398063141921 109.84510837808864 434.929302859259 97.90496923647555 493.4224954655506 106.10369718317975C551.915688071842 114.30242512988389 602.8617715508094 115.8814612824882 625.3868686043627 185.8474135258648C647.911965657916 255.8133657692414 638.4920444589286 336.55061986161127 601.5429613226063 441.9402679513877 "></path><path d="M613.5243777428872 197.11861995573292C634.8639433725691 263.4021536599844 625.9398074998444 339.89007858959803 590.9354129496443 439.732903095702C555.9310183994442 539.575727601806 530.5866815953955 653.579078702133 445.5032839019261 676.3641775850313C360.4198862084568 699.1492764679296 217.45866311453165 629.9635463565761 182.5351040209917 549.1013777336132C147.61154492745175 468.23920911065034 243.49537174928935 369.3227253480428 277.8702002529343 288.22576819480855C312.2450287565793 207.12881104157435 303.6519271563552 194.55553066465495 347.5342808384878 159.83598339808947C391.4166345206204 125.11643613152393 433.0908944054204 113.80472536578526 488.5054979271704 121.57194131529445C543.9201014489203 129.33915726480365 592.1848121132052 130.8350862514814 613.5243777428872 197.11861995573292C634.8639433725691 263.4021536599844 625.9398074998444 339.89007858959803 590.9354129496443 439.732903095702 "></path><path d="M601.661963175357 208.38982638560105C621.8159973811678 270.9909415507275 613.3876468347055 343.2295373175848 580.3279408706276 437.5255382400162C547.2682349065497 531.8215391624477 523.3319168138371 639.4913707572009 442.9753745477826 661.0106308132716C362.61883228172826 682.5298908693422 227.59989935968787 617.1878124308417 194.6165379935668 540.8179865091547C161.63317662744572 464.44816058746744 252.19012418140346 371.02703703389375 284.65523999040147 294.43546638917246C317.1203557993996 217.8438957444513 309.0046487325212 205.96913094402743 350.4490938767576 173.17844741449335C391.8935390209939 140.3877638849592 431.2525622455273 129.7044814950949 483.5885766827355 137.04018544740916C535.9245911199438 144.3758893997234 581.5079289695462 145.78871122047462 601.661963175357 208.38982638560105C621.8159973811678 270.9909415507275 613.3876468347055 343.2295373175848 580.3279408706276 437.5255382400162 "></path><path d="M589.7994875726705 219.66103281546918C608.7679903546101 278.57972944147053 600.8354251344103 346.56899604557157 569.7204077564547 435.3181733843305C538.605390378499 524.0673507230896 516.0770909971224 625.4036628122692 440.447404158483 645.6570840415121C364.8177173198435 665.910505270755 237.74107456968784 604.4120785051075 206.69791093098564 532.534595284696C175.6547472922835 460.65711206428455 260.8848155783613 372.7313487197447 291.44021869271245 300.64516458353637C321.9956218070635 228.55898044732822 314.357309273531 217.3827312233999 353.36384587987106 186.52091143089723C392.37038248621116 155.65909163839456 429.4141690504779 145.60423762440456 478.67159440314447 152.50842957952386C527.929019755811 159.41262153464322 570.830984790731 160.74233618946784 589.7994875726705 219.66103281546918C608.7679903546101 278.57972944147053 600.8354251344103 346.56899604557157 569.7204077564547 435.3181733843305 "></path><path d="M577.936996711195 230.93222398654825C595.7199680692634 286.1685020734245 588.2831881753261 349.90843951476916 559.1128593834926 433.1107932698558C529.9425305916592 516.3131470249424 508.82224992161855 611.3159396085482 437.91941851039417 630.3035220109634C367.01658709916967 649.2911044133787 247.88223452089875 591.6363293205843 218.77926860961549 524.2511888014485C189.67630269833217 456.8660482823127 269.5794917165302 374.43564514680645 298.2251821362343 306.85484751911133C326.8708725559385 239.2740498914161 319.7099545557517 228.7963162439833 356.27858262419556 199.86336018851205C392.84721069263935 170.93040413304078 427.5757605966394 161.5039784949252 473.7545968647644 167.97665845284956C519.9334331328894 174.44933841077392 560.1540253531267 175.69594589967204 577.936996711195 230.93222398654825C595.7199680692634 286.1685020734245 588.2831881753261 349.90843951476916 559.1128593834926 433.1107932698558 "></path><path d="M566.0745668848758 242.203338863682C582.672006819073 293.7571984114332 575.7310122513982 353.24780669002155 548.505372045687 430.9033368614357C521.2797318399757 508.55886703285 501.5674698812711 597.2281401108821 435.3914938974616 614.9498836864695C369.2155179136521 632.6716272620572 258.0234555072659 578.8605038421156 230.86068732340152 515.9677060242556C203.69791913953713 453.07490820639555 278.27422888985524 376.139865279923 305.0102066149125 313.06445416074087C331.74618433996966 249.98904304155872 325.0626608731287 240.2098249706214 359.19338040367626 213.20573265218155C393.3240999342238 186.2016403337417 425.73741317795725 177.40364307150048 468.83766036154043 183.4448110322299C511.93790754512384 189.4859789929593 549.4771269506787 190.64947931593088 566.0745668848758 242.203338863682C582.672006819073 293.7571984114332 575.7310122513982 353.24780669002155 548.505372045687 430.9033368614357 "></path><path d="M554.2120455058222 253.4745452935502C569.623954016148 301.34598630217624 563.1787447747358 356.5872654180083 537.8977931551467 428.69597200575004C512.6168415355578 500.80467859349176 494.3125982881893 583.1404321659502 432.8634777317948 599.59633691471C371.4143571754002 616.0522416634699 268.16458494089875 566.0847699163813 242.94201448445318 507.684314799797C217.71944402800767 449.28385968321277 286.9688745104459 377.84417696577395 311.7951395408562 319.2741523551048C336.62140457126645 260.70412774443565 330.4152756377713 251.6234252499939 362.1080866304226 226.54819666858543C393.80089762307387 201.47296808717704 423.89897420654063 193.3033992008102 463.9206323055822 198.9130551643446C503.9422904046238 204.52271112787906 538.8001369954962 205.6031042849241 554.2120455058222 253.4745452935502C569.623954016148 301.34598630217624 563.1787447747358 356.5872654180083 537.8977931551467 428.69597200575004 "></path><path d="M542.349630938292 264.74573646462926C556.5760080247467 308.93475893413023 550.6265841095968 359.9267088872059 527.2903210761301 426.4885918912753C503.9540580426633 493.05047489534456 487.0578335066308 569.0527089622292 430.33556837765127 584.2427748841615C373.6133032486717 599.4328408060936 278.30582118605497 553.309020731858 255.02344845702834 499.4009083165495C231.7410757280017 445.4927959012408 295.6636269425601 379.54847339283583 318.5801792783234 325.4838352906797C341.49673161408674 271.4191971885235 335.76799721393735 263.03701027057724 365.0228996686924 239.89064542620025C394.27780212344743 216.74428058182326 422.06064204664744 209.20314007133078 459.00371106114744 214.38128403767024C495.94678007564744 219.55942800400976 528.1232538518373 220.55671399512823 542.349630938292 264.74573646462926C556.5760080247467 308.93475893413023 550.6265841095968 359.9267088872059 527.2903210761301 426.4885918912753 "></path><path d="M530.4871248180274 276.0169428944974C543.5279704806109 316.5235468248733 538.0743318917235 363.26616761519267 516.6827574443789 424.2812270355896C495.2911829970344 485.29628645598643 479.80297717233805 554.9650010172974 427.8075674707734 568.8892281124018C375.81215776920885 582.8134552075064 288.4469658784768 540.5332868061237 267.10479087686906 491.1175170920908C245.7626158752613 441.7017473780579 304.3582878219398 381.25278507868677 325.36512746305624 331.6935334850436C346.3719671041726 282.13428189140046 341.120627237369 274.4506105499497 367.93762115422777 253.23310944260413C394.75461507108656 232.01560833525855 420.22221833402 225.10289620064043 454.0866982639782 229.849528169785C487.9511781939366 234.59616013892952 517.446279155444 235.51033896412144 530.4871248180274 276.0169428944974C543.5279704806109 316.5235468248733 538.0743318917235 363.26616761519267 516.6827574443789 424.2812270355896 "></path><path d="M518.62466447413 287.28808828920927C530.4799787128422 324.11227368046013 525.5221254502173 366.60556530802324 506.07523958899515 422.0738011447477C486.62835372777283 477.54203698147205 472.54816661441237 540.8772320372093 425.27961234026276 553.5356203054862C378.01105806611315 566.194008573763 298.58815634726585 527.7574918452333 279.18617907307697 482.8340648324761C259.7842017988881 437.9106378197189 313.05299447768675 382.95703572938146 332.1501214241562 337.9031706442513C351.24724837062564 292.84930555912115 346.47330303716785 285.86414979416594 370.85238841613034 266.57551242385176C395.23147379509294 247.28687505353759 418.3838403977596 241.0025912947939 449.1697312431762 245.31771126674346C479.9556220885929 249.63283123869303 506.76935023541785 250.4639028979584 518.62466447413 287.28808828920927C530.4799787128422 324.11227368046013 525.5221254502173 366.60556530802324 506.07523958899515 422.0738011447477 "></path><path d="M506.76218887144364 298.55930997786646C517.4319716862846 331.7010768299922 512.9699037499222 369.945039294799 495.4677064748221 419.86645154785106C477.9655091997221 469.787863800903 465.29334079769774 526.7895393510664 422.75164195096306 538.1820887925156C380.2099431042284 549.5746382339648 308.7293315572658 514.981773178288 291.2675520104958 474.5506888668066C273.8057724637259 434.11960455532517 321.7476858746447 384.6613626740214 338.93510012646715 344.1128840974043C356.1225143782897 303.56440552078715 351.8259635781776 297.2777653323275 373.7671404192439 279.9179916990447C395.7083172603102 262.558218065762 416.5454472027102 256.9023626828926 444.2527489635852 260.7859706576472C471.9600507244602 264.66957863240185 496.0924060566026 265.41754312574074 506.76218887144364 298.55930997786646C517.4319716862846 331.7010768299922 512.9699037499222 369.945039294799 495.4677064748221 419.86645154785106 "></path><path d="M494.8997437863352 309.83048589015647C504.383995177305 339.28983420315717 500.4177125672052 373.28446750520766 484.86020387822737 417.65905617458714C469.30269518924956 462.0336448439666 458.0385454985612 512.7018008885565 420.2237020792415 522.8285115031779C382.40885865992175 532.9552221177994 318.8705372848439 502.2060087349756 303.34895546549285 466.2672671247699C287.8273736461417 430.32852551456415 330.44240778918066 386.3656438422942 345.72010934635625 350.32255177419006C360.9978109035318 314.27945970608596 357.1786546367655 308.6913350941218 376.68192293993553 293.26042519787046C396.1851912431056 277.82951530161915 414.70708452523894 272.8020882946242 439.33579720157223 276.2541842721838C463.9645098779056 279.7062802497435 485.4154923953655 280.3711375771558 494.8997437863352 309.83048589015647C504.383995177305 339.28983420315717 500.4177125672052 373.28446750520766 484.86020387822737 417.65905617458714 "></path><path d="M483.0372529248598 321.1016618024465C491.33597289195836 346.8785915763221 487.86547560812096 376.62389571561624 474.25265550526535 415.4516608013233C460.63983540240974 454.27942588703047 450.78370442305743 498.61406242604653 417.6957164311527 507.47493421384024C384.6077284392479 516.3358060016341 329.01169723605483 489.43024429166326 315.43031314412264 457.9838453827333C301.84892905219044 426.53744647380324 339.1370839273495 388.069925010567 352.5050727898781 356.5322194509759C365.8730616524067 324.9945138913848 362.53129991898624 320.1049048559162 379.59665968426 306.6028586966963C396.6620194495338 293.1008125374763 412.8686760714005 288.7018139063557 434.4187996631921 291.7223978867204C455.9689232549838 294.7429818670851 474.7385329577612 295.3247320285709 483.0372529248598 321.1016618024465C491.33597289195836 346.8785915763221 487.86547560812096 376.62389571561624 474.25265550526535 415.4516608013233 "></path><path d="M471.17480783975145 332.37288349110366C478.2879963829788 354.4673947258542 475.3132844254039 379.963369702392 463.6451529086705 413.2443112044267C451.9770213919371 446.52525270646134 443.52890912392087 484.52636973990366 415.1677765594311 492.1214027008698C386.8066439949413 499.71643566183593 339.1529029636329 476.6545256247181 327.5117165991196 449.7004694170638C315.8705302346063 422.74641320940947 347.8318058418855 389.774251955207 359.29008200976716 362.74193290412893C370.7483581776488 335.7096138530508 367.8839909775741 331.5185203940777 382.51144220495166 319.9453379718892C397.13889343232916 308.37215554970066 411.0303133939292 304.6015852944545 429.5018479011792 307.1906572776242C447.9733824084292 309.77972926079394 464.0616192965241 310.2783722563532 471.17480783975145 332.37288349110366C478.2879963829788 354.4673947258542 475.3132844254039 379.963369702392 463.6451529086705 413.2443112044267 "></path><path d="M459.312332237065 343.6440594033937C465.2399893564211 362.05615209901913 462.7610627251087 383.30279791280066 453.0376197944976 411.0369158311629C443.3141768638864 438.7710337495251 436.2740833072062 470.4386312773937 412.63980617013135 476.76782541153216C389.0055290330566 483.0970195456705 349.2940781736329 463.8787611814057 339.5930895365385 441.4170476750271C329.8921008994441 418.9553341686485 356.5264972388434 391.4785331234798 366.0750607120781 368.9516005809147C375.62362418531285 346.42466803834964 373.2366515185839 342.93209015587206 385.42619420806517 333.287771470715C397.61573689754647 323.6434527855579 409.1919201988798 320.501310906186 424.5848656215881 322.6588708921608C439.97781104429646 324.8164308781356 453.3846751177089 325.23196670776827 459.312332237065 343.6440594033937C465.2399893564211 362.05615209901913 462.7610627251087 383.30279791280066 453.0376197944976 411.0369158311629 "></path><path d="M447.44985663437853 354.9152505744728C452.19198232986344 369.6449247309731 450.2088410248135 386.64224138199836 442.4300866803246 408.8295357166881C434.6513323358357 431.01683005137784 429.01925749049155 456.35090807367277 410.11183578083165 461.41426338098347C391.2044140711718 466.4776186882942 359.4352533836329 451.10301199688234 351.67446247395736 433.1336411917795C343.9136715642818 415.1642703866766 365.2211886358013 393.1828295505416 372.86003941438906 375.16128351648956C380.49889019297683 357.1397374824375 378.5893120595937 354.3456751764554 388.34094621117873 346.6302202283298C398.0925803627637 338.9147652802041 407.35352700383044 336.4010517767066 419.667883341997 338.12709976548643C431.98223968016373 339.8531477542663 442.7077309388937 340.1855764179724 447.44985663437853 354.9152505744728C452.19198232986344 369.6449247309731 450.2088410248135 386.64224138199836 442.4300866803246 408.8295357166881 "></path><path d="M435.5873962904812 366.18644174555186C439.14399056209487 377.2336973629271 437.65663458330744 389.981684851196 431.82256882494073 406.62215560221335C425.988503066574 423.26262635323064 421.76444693256593 442.26318486995183 407.583880650321 446.0607013504349C393.4033143680761 449.85821783091797 369.57644385242196 438.32726281235904 363.7558506701653 424.8502347085319C357.93525748790864 411.37320660470476 373.9158952915482 394.8871259776035 379.64503337548905 381.37096645206447C385.3741714594299 367.8548069265254 383.94198785939255 365.7592601970388 391.2557134730813 359.9726689859446C398.56943908677005 354.18607777485033 405.51514906757006 352.30079264722724 414.75091632119506 353.5953286388121C423.98668357482006 354.88986463039697 432.0308020188675 355.1391861281766 435.5873962904812 366.18644174555186C439.14399056209487 377.2336973629271 437.65663458330744 389.981684851196 431.82256882494073 406.62215560221335 "></path><path d="M423.7249359465838 377.4576329166309C426.09599879432625 384.8224699948811 425.1044281418013 393.3211283203937 421.21505096955684 404.4147754877386C417.3256737973124 415.50842265508345 414.5096363746403 428.17546166623094 405.0559255198104 430.70713931988627C395.60221466498047 433.23881697354165 379.717634321211 425.5515136278357 375.8372388663732 416.56682822528427C371.95684341153543 407.58214282273286 382.61060194729515 396.59142240466537 386.43002733658903 387.5806493876393C390.2494527258829 378.5698763706133 389.2946636591914 377.17284521762224 394.17048073498387 373.3151177435594C399.0462978107764 369.45739026949656 403.67677113130975 368.20053351774783 409.83394930039304 369.0635575121378C415.9911274694764 369.92658150652767 421.3538730988414 370.09279583838077 423.7249359465838 377.4576329166309C426.09599879432625 384.8224699948811 425.1044281418013 393.3211283203937 421.21505096955684 404.4147754877386 "></path><path d="M411.8624908614755 388.72880882892093C413.04802228534675 392.411227368046 412.5522369590842 396.6605565308023 410.607548372962 402.20738011447474C408.66285978683976 407.7542036981472 407.25484107550375 414.08772320372094 402.52798564808876 415.35356203054863C397.8011302206738 416.61940085737626 389.8588400487891 412.7757491845233 387.9186423213702 408.28340648324763C385.97844459395134 403.7910637819719 391.3053238618312 398.2957035729381 393.21503655647814 393.79031706442515C395.1247492511251 389.2849305559121 394.6473547177793 388.5864149794166 397.08526325567556 386.6575512423852C399.5231717935718 384.7286875053538 401.83840845383844 384.1002591294794 404.91699753838014 384.53177112667436C407.9955866229218 384.9632831238693 410.6769594376043 385.04639028979585 411.8624908614755 388.72880882892093C413.04802228534675 392.411227368046 412.5522369590842 396.6605565308023 410.607548372962 402.20738011447474 "></path></g></svg>